<?xml version="1.0" standalone="no"?><!-- Generator: Gravit.io --><svg xmlns="http://www.w3.org/2000/svg" xmlns:xlink="http://www.w3.org/1999/xlink" style="isolation:isolate" viewBox="0 0 306.092 139.745" width="306.092" height="139.745"><defs><clipPath id="_clipPath_HNc3JHYBPsZSmji3DrCZv7Va7AZ4k6So"><rect width="306.092" height="139.745"/></clipPath></defs><g clip-path="url(#_clipPath_HNc3JHYBPsZSmji3DrCZv7Va7AZ4k6So)"><g id="bowl"><path d=" M 0 68.17 C 0 29.607 68.578 -1.702 153.046 -1.702 C 237.514 -1.702 306.092 29.607 306.092 68.17 C 306.092 106.734 237.514 138.043 153.046 138.043 C 68.578 138.043 0 106.734 0 68.17 Z " fill="rgb(100,140,249)"/><path d=" M 35.773 46.394 C 35.773 23.117 88.62 4.218 153.712 4.218 C 218.805 4.218 271.652 23.117 271.652 46.394 C 271.652 69.672 218.805 88.571 153.712 88.571 C 88.62 88.571 35.773 69.672 35.773 46.394 Z " fill="rgb(63,114,255)"/><path d=" M 67.375 43.141 C 67.375 34.362 107.376 27.235 156.646 27.235 C 205.916 27.235 245.917 34.362 245.917 43.141 C 245.917 51.92 205.916 59.047 156.646 59.047 C 107.376 59.047 67.375 51.92 67.375 43.141 Z " fill="rgb(100,144,174)"/></g></g></svg>