<?xml version="1.0" standalone="no"?><!-- Generator: Gravit.io --><svg xmlns="http://www.w3.org/2000/svg" xmlns:xlink="http://www.w3.org/1999/xlink" style="isolation:isolate" viewBox="0 0 1122.737 561.432"><defs><clipPath id="_clipPath_HKg36EskzadvKx3cQvs6XWTp9fB7xiGO"><rect width="1122.737" height="561.432"/></clipPath></defs><g clip-path="url(#_clipPath_HKg36EskzadvKx3cQvs6XWTp9fB7xiGO)"><path d=" M 51.921 70.126 Q 18.526 100.213 1.5 183.642 L 5.04 387.126 Q 24.882 481.987 58.618 521.069 C 71.721 536.249 80.6 554.572 101.033 559.02 C 129.962 565.318 146.447 537.542 168.005 521.069 C 209.368 489.465 217.183 437.921 257.301 404.985 C 274.816 390.605 288.211 374.086 310.878 369.267 C 326.416 365.963 339.902 369.802 355.526 371.499 C 437.122 380.36 490.877 434.477 566.274 463.644 C 609.096 480.209 644.352 497.678 689.254 507.79 C 722.729 515.329 751.641 519.521 785.956 520.404 Q 828.764 521.505 906.834 507.79 L 1047.683 418.446 L 1082.369 374.299 L 1121.237 275.506 L 1090.778 184.049 L 1053.989 128.34 L 917.345 8.513 Q 789.669 -2.938 720.787 4.309 Q 681.199 8.474 609.37 24.28 Q 560.841 68.812 534.118 92.45 C 480.326 140.03 450.06 206.317 377.85 224.161 C 357.104 229.288 338.877 234.204 317.575 230.858 C 298.99 227.939 283.82 221.62 268.463 210.767 C 251.471 198.758 243.87 181.786 230.512 166.119 C 191.159 119.962 188.979 26.765 117.929 35.252 C 91.289 38.434 71.609 52.388 51.921 70.126 Z  M 853.814 167.795 C 853.814 138.185 877.853 114.146 907.463 114.146 C 937.072 114.146 961.111 138.185 961.111 167.795 C 961.111 197.405 937.072 221.444 907.463 221.444 C 877.853 221.444 853.814 197.405 853.814 167.795 Z " fill-rule="evenodd" fill="rgb(183,132,103)" vector-effect="non-scaling-stroke" stroke-width="1" stroke="rgb(0,0,0)" stroke-linejoin="miter" stroke-linecap="square" stroke-miterlimit="3"/></g></svg>