<?xml version="1.0" standalone="no"?><!-- Generator: Gravit.io --><svg xmlns="http://www.w3.org/2000/svg" xmlns:xlink="http://www.w3.org/1999/xlink" style="isolation:isolate" viewBox="0 0 445 673.749"><defs><clipPath id="_clipPath_uoU8wyZbBEycknh35ybzaBCwxZq6JT44"><rect width="445" height="673.749"/></clipPath></defs><g clip-path="url(#_clipPath_uoU8wyZbBEycknh35ybzaBCwxZq6JT44)"><g class="top-plank-rope-blade-dropped"><path d=" M 208.661 66.624 L 207.65 84.367 L 207.062 93.925 L 206.385 94.028 L 205.779 84.098 L 203.415 67.139 L 208.661 66.624 Z " fill="none" vector-effect="non-scaling-stroke" stroke-width="3" stroke="rgb(94,83,70)" stroke-linejoin="miter" stroke-linecap="square" stroke-miterlimit="3"/></g><g class="blade"><path d=" M 207.562 67.012 Q 212.976 71.757 215.264 72.929 C 217.553 74.101 217.385 80.464 218.669 80.576 C 219.953 80.688 218.948 80.688 219.618 78.957 C 220.288 77.227 213.87 81.551 212.641 75.05 Q 212.307 73.284 210.185 66.398 L 207.562 67.012 Z " fill="rgb(164,140,112)"/><path d=" M 44.647 93.96 L 400.353 40.96 L 400.353 145.709 L 44.647 192.709 L 44.647 93.96 Z  M 212.5 82.249 C 212.5 78.386 215.637 75.249 219.5 75.249 C 223.363 75.249 226.5 78.386 226.5 82.249 C 226.5 86.113 223.363 89.249 219.5 89.249 C 215.637 89.249 212.5 86.113 212.5 82.249 Z " fill-rule="evenodd" fill="#7c7c7c"/><path d=" M 217.486 79.241 C 217.405 78.446 216.931 81.21 216.943 80.463 C 217.068 72.879 218.552 80.17 226.503 75.474 Q 234.857 70.54 250.5 72.249 Q 251.82 75.653 245.618 74.109 C 239.417 72.564 230.034 75.031 228.079 76.104 C 226.124 77.177 224.057 78.497 223.173 81.777 C 222.29 85.058 215.529 81.418 219.351 77.383 C 223.172 73.349 228.002 70.645 228.709 73.478 C 229.415 76.312 236.431 76.005 231.755 75.684 C 227.078 75.363 228.076 73.521 231.755 71.903 C 234.38 70.748 234.485 70.958 237.951 72.113 Q 242.67 73.686 257.487 74.319 Q 240.07 74.386 237.426 75.579 C 234.782 76.772 241.183 71.041 246.039 71.483 C 248.349 71.693 245.667 74.087 249.82 74.949 C 253.972 75.81 258.34 73.402 258.537 76.104 C 258.635 77.455 253.306 77.825 249.294 77.154 C 248.172 76.967 257.131 82.788 256.226 82.511 C 253.898 81.797 242.35 74.939 241.732 75.369 C 240.017 76.562 244.301 75.751 254.546 69.067 Q 264.791 62.383 250.135 80.62 Q 247.453 78.484 242.363 77.469 C 230.52 75.11 220.668 75.99 220.5 79.249 C 220.203 85.015 217.005 75.945 217.486 79.241 Z " fill="none" vector-effect="non-scaling-stroke" stroke-width="3" stroke="rgb(164,140,112)" stroke-linejoin="miter" stroke-linecap="square" stroke-miterlimit="3"/></g><path d=" M 187.668 505.223 L 47.5 505.205 L 47.5 652.709 L 397.5 652.709 L 397.5 505.249 L 257.335 505.232 C 258.713 509.167 259.464 513.403 259.464 517.816 C 259.464 538.549 242.901 555.382 222.5 555.382 C 202.099 555.382 185.536 538.549 185.536 517.816 C 185.536 513.4 186.288 509.16 187.668 505.223 Z " fill-rule="evenodd" fill="rgb(210,180,143)"/><path d=" M 437.5 642.249 L 437.5 652.709 L 7.5 652.709 L 7.5 642.249 L 437.5 642.249 Z " fill="rgb(185,158,125)" vector-effect="non-scaling-stroke" stroke-width="5" stroke="rgb(185,158,125)" stroke-linejoin="miter" stroke-linecap="square" stroke-miterlimit="3"/><g class="border"><path d=" M 37.5 642.249 L 37.5 31.5 L 407.5 31.5 L 407.5 642.249 L 37.5 642.249 Z " fill="none" vector-effect="non-scaling-stroke" stroke-width="5" stroke="rgb(185,158,125)" stroke-linejoin="miter" stroke-linecap="square" stroke-miterlimit="3"/></g><path d=" M 203.415 67.139 L 202.985 64.056 L 207.909 22.954 L 202.116 19.402 L 208.778 64.563 L 208.661 66.624 L 203.415 67.139 Z " fill="none" vector-effect="non-scaling-stroke" stroke-width="3" stroke="rgb(94,83,70)" stroke-linejoin="miter" stroke-linecap="square" stroke-miterlimit="3"/><path d=" M 47.5 41.96 L 47.5 93.96 L 400.5 41.249 L 47.5 41.96 Z  M 199.167 51.471 C 199.167 47.636 202.281 44.521 206.117 44.521 C 209.953 44.521 213.067 47.636 213.067 51.471 C 213.067 55.307 209.953 58.421 206.117 58.421 C 202.281 58.421 199.167 55.307 199.167 51.471 Z " fill-rule="evenodd" fill="rgb(210,180,143)"/><path d=" M 205.518 44.14 L 206.121 40.045 Q 206.047 43.873 207.084 41.49 Q 204.041 43.574 207.084 45.545 Q 203.613 45.526 206.602 45.946 Q 205.237 48.476 206.562 46.348 L 206.121 44.1 Q 204 40.732 205.518 43.698 Q 213.338 48.383 205.599 44.421 L 205.277 41.369 L 205.518 44.14 Z " fill="none" vector-effect="non-scaling-stroke" stroke-width="1" stroke="rgb(94,83,70)" stroke-linejoin="miter" stroke-linecap="square" stroke-miterlimit="3"/></g></svg>