<?xml version="1.0" standalone="no"?><!-- Generator: Gravit.io --><svg xmlns="http://www.w3.org/2000/svg" xmlns:xlink="http://www.w3.org/1999/xlink" style="isolation:isolate" viewBox="0 0 197.2 192.282"><defs><clipPath id="_clipPath_cri1fwvZTTGGWHNMhb0N5TS6PxROZWwB"><rect width="197.2" height="192.282"/></clipPath></defs><g clip-path="url(#_clipPath_cri1fwvZTTGGWHNMhb0N5TS6PxROZWwB)"><g id="audio"><path d=" M 25.52 130.941 C 19.117 130.933 13.928 125.744 13.92 119.341 L 13.92 72.941 C 13.92 66.547 19.121 61.341 25.52 61.341 L 51.04 61.341 L 51.04 130.941 L 25.52 130.941 Z " fill="rgb(176,193,212)"/><path d=" M 48.72 63.661 L 48.72 128.621 L 25.52 128.621 C 20.402 128.621 16.24 124.459 16.24 119.341 L 16.24 72.941 C 16.24 67.823 20.402 63.661 25.52 63.661 L 48.72 63.661 Z  M 53.36 59.021 L 25.52 59.021 C 17.832 59.021 11.6 65.253 11.6 72.941 L 11.6 119.341 C 11.6 127.029 17.832 133.261 25.52 133.261 L 53.36 133.261 L 53.36 59.021 Z " fill="rgb(102,121,143)"/><path d=" M 51.04 132.839 L 51.04 60.274 L 106.72 12.997 L 106.72 179.341 L 51.04 132.839 Z " fill="rgb(176,193,212)"/><path d=" M 104.4 18.008 L 104.4 174.38 L 53.36 131.753 L 53.36 61.345 L 104.4 18.008 Z  M 109.04 7.981 L 48.72 59.197 L 48.72 133.924 L 109.04 184.301 L 109.04 7.981 Z " fill="rgb(102,121,143)"/><path d=" M 132.286 169.082 C 163.198 159.24 185.6 130.314 185.6 96.141 C 185.6 61.967 163.198 33.041 132.286 23.2" fill="none" vector-effect="non-scaling-stroke" stroke-width="4.64" stroke="rgb(139,183,240)" stroke-linejoin="miter" stroke-linecap="butt" stroke-miterlimit="10"/><path d=" M 125.702 148.429 C 147.093 140.662 162.4 120.213 162.4 96.141 C 162.4 72.068 147.093 51.62 125.702 43.853" fill="none" vector-effect="non-scaling-stroke" stroke-width="4.64" stroke="rgb(139,183,240)" stroke-linejoin="miter" stroke-linecap="butt" stroke-miterlimit="10"/><path d=" M 118.199 124.876 C 130.375 120.997 139.2 109.601 139.2 96.141 C 139.2 82.68 130.375 71.284 118.199 67.405" fill="none" vector-effect="non-scaling-stroke" stroke-width="4.64" stroke="rgb(139,183,240)" stroke-linejoin="miter" stroke-linecap="butt" stroke-miterlimit="10"/></g><g id="audio-line"><line x1="196" y1="1" x2="0" y2="197" vector-effect="non-scaling-stroke" stroke-width="10" stroke="rgb(255,0,0)" stroke-linejoin="miter" stroke-linecap="square" stroke-miterlimit="3"/></g></g></svg>