<?xml version="1.0" standalone="no"?><!-- Generator: Gravit.io --><svg xmlns="http://www.w3.org/2000/svg" xmlns:xlink="http://www.w3.org/1999/xlink" style="isolation:isolate" viewBox="0 0 41.667 41.667" ><defs><clipPath id="_clipPath_3BZdIigY1c9hsatxRZ2V2ils8riWnEer"><rect width="41.667" height="41.667"/></clipPath></defs><g clip-path="url(#_clipPath_3BZdIigY1c9hsatxRZ2V2ils8riWnEer)"><path d=" M 20.833 0 L 20.833 4.167 C 30.135 4.167 37.5 11.532 37.5 20.833 C 37.5 30.135 30.135 37.5 20.833 37.5 C 11.532 37.5 4.167 30.135 4.167 20.833 C 4.167 17.31 5.273 14.046 7.161 11.328 L 11.654 15.82 L 14.583 1.042 L 0 4.167 L 4.232 8.398 C 1.611 11.89 0 16.17 0 20.833 C 0 32.365 9.302 41.667 20.833 41.667 C 32.365 41.667 41.667 32.365 41.667 20.833 C 41.667 9.302 32.365 0 20.833 0 Z " fill="#fafafa"/></g></svg>