<?xml version="1.0" standalone="no"?><!-- Generator: Gravit.io --><svg xmlns="http://www.w3.org/2000/svg" xmlns:xlink="http://www.w3.org/1999/xlink" style="isolation:isolate" viewBox="0 0 306.092 139.745" width="306.092" height="139.745"><defs><clipPath id="_clipPath_S8nt5wAXOia15hQ4y7sCgf7QNVD74Qaq"><rect width="306.092" height="139.745"/></clipPath></defs><g clip-path="url(#_clipPath_S8nt5wAXOia15hQ4y7sCgf7QNVD74Qaq)"><g id="bowl"><path d=" M 0 69.872 C 0 31.309 68.578 0 153.046 0 C 237.514 0 306.092 31.309 306.092 69.872 C 306.092 108.436 237.514 139.745 153.046 139.745 C 68.578 139.745 0 108.436 0 69.872 Z " fill="rgb(255,230,102)"/><path d=" M 35.773 46.394 C 35.773 23.117 88.62 4.218 153.712 4.218 C 218.805 4.218 271.652 23.117 271.652 46.394 C 271.652 69.672 218.805 88.571 153.712 88.571 C 88.62 88.571 35.773 69.672 35.773 46.394 Z " fill="rgb(255,213,0)"/><path d=" M 67.375 43.141 C 67.375 34.362 107.376 27.235 156.646 27.235 C 205.916 27.235 245.917 34.362 245.917 43.141 C 245.917 51.92 205.916 59.047 156.646 59.047 C 107.376 59.047 67.375 51.92 67.375 43.141 Z " fill="rgb(225,202,85)"/></g></g></svg>