<?xml version="1.0" standalone="no"?><!-- Generator: Gravit.io --><svg xmlns="http://www.w3.org/2000/svg" xmlns:xlink="http://www.w3.org/1999/xlink" style="isolation:isolate" viewBox="0 0 1400 900"><defs><clipPath id="_clipPath_joK7MzPg18I7DQjyiSgDEmi9RbNoaa8c"><rect width="1400" height="900"/></clipPath></defs><g clip-path="url(#_clipPath_joK7MzPg18I7DQjyiSgDEmi9RbNoaa8c)"><g style="isolation:isolate" class="cat"><g class="leg-front-right"><path d=" M 517.097 565.014 L 490.598 619.832 L 476.598 648.994 L 451.598 696.255 L 436.598 725.417 L 391.161 806.178 L 373.451 812.901 Q 359.973 817.653 354.451 812.901 Q 351.564 810.415 349.451 803.534 L 349.451 793.795 L 352.451 782.734 L 373.451 768.656 L 391.598 718.378 L 401.598 699.272 L 413.598 676.144 L 425.598 654.765 L 436.598 633.607 L 445.598 612.449 Q 446.944 598.972 445.598 591.677 C 444.469 585.556 443.501 580.955 440.451 575.588 C 438.468 572.098 435.229 567.591 430.669 562.014 L 517.097 565.014 Z " fill="rgb(113,113,113)" vector-effect="non-scaling-stroke" stroke-width="1" stroke="rgb(0,0,0)" stroke-linejoin="miter" stroke-linecap="square" stroke-miterlimit="3"/></g><g class="leg-back-right"><g class="bottom"><path d=" M 1049.872 595.446 Q 1050.236 595.704 1050.451 595.914 C 1053.22 599.682 1039.222 628.741 1037.451 635.612 Q 1036.703 638.517 1028.451 650.914 L 1018.451 673.969 L 1009.451 687.969 L 1003.451 698.873 L 993.327 711.27 L 982.451 726.914 Q 959.738 755.017 951.451 747.914 Q 944.451 741.914 956.451 711.27 L 982.451 671.049 L 995.451 641.01 L 998.451 619.969 L 997.025 619.179 L 1049.872 595.446 Z " fill="rgb(113,113,113)" vector-effect="non-scaling-stroke" stroke-width="1" stroke="rgb(0,0,0)" stroke-linejoin="miter" stroke-linecap="square" stroke-miterlimit="3"/><path d=" M 996.383 617.326 L 999.846 619.389 L 998.763 627.203 L 1045.969 610.239 L 1047.351 606.469 L 1048.772 601.711 L 1049.017 600.848 L 1049.479 598.357 L 1049.51 597.154 L 1047.6 595.119 L 1046.991 594.614 L 996.383 617.326 Z " fill="rgb(219,201,180)"/></g><g class="top"><path d=" M 813.223 535.969 C 814.529 533.712 816.076 532.042 817.845 530.914 C 824.24 526.835 831.301 528.243 838.451 529.914 Q 845.588 531.581 856.451 539.914 L 875.451 551.414 L 904.451 572.489 L 936.451 588.27 L 969.451 603.914 L 997.025 619.179 L 1049.997 595.493 C 1043.502 589.378 1031.315 583.185 1013.451 576.914 L 998.451 568.914 L 986.451 562.914 L 962.451 545.914 Q 946.135 533.094 938.451 524.914 Q 928.61 514.436 914.451 491.914 Q 900.013 451.827 899.551 428.914 Q 899.494 426.102 899.689 422.033 L 898.151 424.014 L 813.223 535.969 Z " fill="rgb(113,113,113)" vector-effect="non-scaling-stroke" stroke-width="1" stroke="rgb(0,0,0)" stroke-linejoin="miter" stroke-linecap="square" stroke-miterlimit="3"/><path d=" M 993.162 616.479 L 998.987 619.697 L 997.962 627.1 L 1046.793 610.216 L 1048.169 606.554 L 1049.767 601.245 L 1050.259 598.615 L 1050.332 596.919 L 1050.086 596.255 L 1048.447 594.76 L 1045.516 592.487 L 1042.526 590.451 L 993.162 616.479 Z " fill="rgb(132,132,132)"/></g></g><g class="body"><path d=" M 1182.971 218.891 C 1178.483 221.518 1173.351 224.278 1167.734 227.136 L 1125.178 246.906 L 1061.711 274.093 L 993.327 308.285 Q 958.445 319.392 943.354 331.956 Q 926.794 345.744 909.163 381.929 L 900.451 407.723 C 900.034 412.912 899.759 417.389 899.689 420.843 L 899.151 422.823 Q 885.194 469.978 869.151 490.723 Q 853.694 510.711 813.223 534.778 L 684.135 549.761 C 668.962 543.877 645.421 564.175 625.598 564.723 Q 619.626 564.888 608.598 564.723 L 593.598 564.723 L 572.598 564.723 L 548.834 564.723 L 517.598 564.723 L 517.097 564.823 L 430.151 561.823 L 429.451 561.723 L 416.308 561.723 L 416.308 561.723 L 415.019 563.15 L 326.593 515.76 C 326.902 508.753 326.897 500.378 326.598 490.723 L 317.382 467.723 L 304.598 447.723 C 300.657 440.156 292.502 431.188 288.45 424.723 C 284.338 418.162 280.782 411.675 277.159 405.274 L 399.065 295.014 C 401.622 297.099 404.18 299.048 406.806 300.723 C 426.598 314.723 422.174 305.583 443.628 313.545 C 448.266 321.001 461.931 326.723 473.598 328.723 L 498.861 331.956 L 590.916 331.956 L 682.971 331.956 L 698.752 331.956 L 774.286 325.805 Q 818.286 333.528 853.93 318.805 Q 873.505 310.72 909.163 295.134 L 993.327 258.312 L 1061.711 234.641 L 1114.313 213.6 Q 1140.397 204.064 1157.588 195.031 L 1182.971 218.891 Z " fill="rgb(113,113,113)" vector-effect="non-scaling-stroke" stroke-width="1" stroke="rgb(0,0,0)" stroke-linejoin="miter" stroke-linecap="square" stroke-miterlimit="3"/><path d=" M 755.263 457.24 L 763.059 473.237 L 780.68 475.707 L 767.876 488.064 L 770.971 505.587 L 755.263 497.228 L 739.554 505.587 L 742.65 488.064 L 729.845 475.707 L 747.468 473.237 L 755.263 457.24 Z " fill-rule="evenodd" fill="rgb(255,56,49)" vector-effect="non-scaling-stroke" stroke-width="1" stroke="rgb(0,0,0)" stroke-linejoin="round" stroke-linecap="butt" stroke-miterlimit="1.414"/><g class="tail-top"><path d=" M 1182.971 218.891 Q 1198.109 210.283 1206.368 203.079 Q 1233.102 179.761 1253.711 116.285 L 1258.971 105.764 Q 1263.339 101.145 1264.231 97.874 Q 1265.517 93.161 1261.601 84.723 Q 1247.037 86.712 1243.19 92.614 C 1223.389 122.994 1208.024 160.745 1174.807 184.668 C 1170.091 188.065 1164.38 191.517 1157.588 195.031 L 1182.971 218.891 Z " fill="rgb(113,113,113)" vector-effect="non-scaling-stroke" stroke-width="1" stroke="rgb(0,0,0)" stroke-linejoin="miter" stroke-linecap="square" stroke-miterlimit="3"/><path d=" M 1155.01 197.86 L 1158.594 195.984 L 1163.246 193.481 L 1186.502 215.353 L 1181.892 218.023 L 1177.354 220.592 L 1155.01 197.86 Z " fill="rgb(132,132,132)"/></g></g><g style="isolation:isolate" class="head"><path d=" M 268.416 391.875 C 267.636 390.691 266.841 389.51 266.023 388.331 C 258.747 377.849 250.462 375.91 239.216 366.048 C 232.275 359.96 226.267 359.285 215.76 359.011 Q 210.258 367.032 201.729 369.014 C 198.519 369.76 194.988 368.529 191.135 369.014 Q 183.023 361.455 178.849 360.018 Q 174.062 358.37 167.464 351.558 L 159.574 341.037 L 175.354 314.736 L 172.724 283.174 L 185.875 259.503 L 185.875 225.311 L 191.135 185.859 L 201.656 141.147 C 208.667 144.457 228.834 187.612 259.519 209.53 L 270.039 185.859 L 277.93 149.037 L 288.45 127.996 L 306.861 167.448 L 317.382 191.119 L 330.533 214.79 L 341.053 235.832 L 351.574 259.503 Q 372.551 274.584 383.598 283.174 C 384.516 283.888 385.42 284.613 386.321 285.341 L 268.416 391.875 Z " fill="rgb(113,113,113)" vector-effect="non-scaling-stroke" stroke-width="1" stroke="rgb(0,0,0)" stroke-linejoin="miter" stroke-linecap="square" stroke-miterlimit="3"/><path d=" M 159.772 340.984 Q 165.273 332.159 168.124 327.385 C 170.823 328.047 173.113 330.746 175.979 333.622 C 176.321 335.786 176.831 338.805 175.979 341.476 Q 174.583 345.852 166.869 350.067 L 159.772 340.984 Z " fill="rgb(255,135,135)" vector-effect="non-scaling-stroke" stroke-width="0.1" stroke="rgb(0,0,0)" stroke-linejoin="miter" stroke-linecap="square" stroke-miterlimit="3"/><path d=" M 197.783 229.914 L 198.283 218.414 L 201.283 201.414 L 205.283 182.914 L 209.165 166.076 L 219.783 181.414 L 231.283 201.414 L 237.783 215.414 L 239.783 225.914 L 243.783 238.414 L 228.783 244.414 L 214.783 243.414 L 198.283 248.414 L 197.783 229.914 Z " fill="rgb(176,136,136)" vector-effect="non-scaling-stroke" stroke-width="1" stroke="rgb(219,170,170)" stroke-linejoin="miter" stroke-linecap="square" stroke-miterlimit="3"/><g style="isolation:isolate" class="cat-eye"><path d=" M 185.875 280.544 L 191.135 275.284 L 199.026 272.653 L 206.916 272.653 L 214.806 275.284 L 220.067 277.914 L 222.697 280.544 L 220.067 283.174 L 214.806 288.434 L 206.916 293.695 L 196.396 296.325 L 192.451 295.914 L 188.451 293.914 L 186.248 292.626 L 185.875 288.434 L 185.875 280.544 Z " fill="rgb(198,198,198)" vector-effect="non-scaling-stroke" stroke-width="2.63" stroke="rgb(0,0,0)" stroke-opacity="0.22" stroke-linejoin="miter" stroke-linecap="square" stroke-miterlimit="3"/><path d=" M 198.099 273.914 L 193.238 275.284 L 186.451 280.83 L 186.451 283.603 L 186.451 286.376 L 186.451 289.149 L 186.451 291.922 L 193.238 294.695 L 196.132 294.914 L 200.451 293.914 L 201.451 289.149 L 202.451 286.376 L 202.451 283.603 L 201.451 280.83 L 200.451 273.914 L 198.099 273.914 Z " fill="rgb(40,40,40)" vector-effect="non-scaling-stroke" stroke-width="2.63" stroke="rgb(0,0,0)" stroke-linejoin="miter" stroke-linecap="square" stroke-miterlimit="3"/></g><g style="isolation:isolate" class="whiskers"><path d=" M 188.511 321.014 L 210.357 316.399 L 235.588 313.937" fill="none" vector-effect="non-scaling-stroke" stroke-width="1" stroke="rgb(255,255,255)" stroke-linejoin="miter" stroke-linecap="square" stroke-miterlimit="3"/><path d=" M 188.677 327.147 L 210.937 325.396 L 236.274 326.219" fill="none" vector-effect="non-scaling-stroke" stroke-width="1" stroke="rgb(255,255,255)" stroke-linejoin="miter" stroke-linecap="square" stroke-miterlimit="3"/><path d=" M 188.851 332.08 L 211.134 333.499 L 236.1 337.901" fill="none" vector-effect="non-scaling-stroke" stroke-width="1" stroke="rgb(255,255,255)" stroke-linejoin="miter" stroke-linecap="square" stroke-miterlimit="3"/></g><g style="isolation:isolate" class="right-ear-shadow"><path d=" M 348.59 257.456 L 337.783 265.914 L 316.283 267.914 L 292.783 266.414 L 274.783 254.914 L 265.783 243.414 L 257.783 226.914 L 260.432 212.789 L 348.59 257.456 Z " fill="rgb(134,134,134)"/><path d=" M 331.78 219.689 L 338.783 233.914 L 349.283 256.914 L 348.59 257.456 L 260.432 212.789 L 260.783 210.914 L 271.783 188.914 L 272.862 183.521 L 331.78 219.689 Z " fill="rgb(134,134,134)"/><path d=" M 307.442 169.379 L 322.783 201.414 L 331.78 219.689 L 272.862 183.521 L 276.783 163.914 L 279.783 145.914 L 280.63 144.455 L 307.442 169.379 Z " fill="rgb(134,134,134)"/><path d=" M 307.442 169.379 L 288.783 130.414 L 280.63 144.455 L 307.442 169.379 Z " fill="rgb(134,134,134)"/><line x1="260.324" y1="210.044" x2="307.442" y2="235.914" vector-effect="non-scaling-stroke" stroke-width="1" stroke="rgb(0,0,0)" stroke-linejoin="miter" stroke-linecap="square" stroke-miterlimit="3"/></g><path d=" M 399.065 296.205 C 394.904 292.779 390.75 288.977 386.321 285.341 L 268.416 391.875 C 271.558 396.685 274.378 401.549 277.159 406.465 L 399.065 296.205 Z " fill="rgb(255,56,49)" vector-effect="non-scaling-stroke" stroke-width="1" stroke="rgb(0,0,0)" stroke-linejoin="miter" stroke-linecap="square" stroke-miterlimit="3"/></g><g class="leg-back-left"><g class="bottom"><path d=" M 853.771 718.701 Q 853.845 719.323 853.845 719.914 Q 853.845 725.164 785.845 772.914 L 744.845 807.914 L 718.845 814.914 Q 698.316 801.081 700.845 788.914 Q 703.534 775.977 729.845 772.914 L 776.699 726.914 L 795.844 715.133 L 853.771 718.701 Z " fill="rgb(113,113,113)" vector-effect="non-scaling-stroke" stroke-width="1" stroke="rgb(0,0,0)" stroke-linejoin="miter" stroke-linecap="square" stroke-miterlimit="3"/><path d=" M 792.782 705.671 L 842.267 700.071 L 844.401 703.129 L 847.401 706.533 L 849.017 709.36 L 850.978 713.225 L 852.536 717.725 L 852.544 719.935 L 851.749 721.072 L 850.068 722.982 L 845.736 727.073 L 841.097 730.713 L 789.56 720.435 L 796.181 716.462 L 797.207 716.022 L 796.997 712.514 L 792.782 705.671 Z " fill="rgb(219,201,180)"/></g><g class="top"><path d=" M 814.61 534.57 Q 809.908 541.431 808.451 551.414 L 808.451 572.489 L 808.451 603.914 L 808.451 635.612 L 817.845 661.914 L 829.492 681.553 L 844.533 700.914 C 850.253 707.973 853.338 713.904 853.771 718.701 L 795.844 715.133 L 796.845 714.516 L 753.218 650.914 L 744.845 627.914 Q 743.242 619.173 741.845 614.571 C 733.793 588.038 704.682 575.76 691.451 556.914 C 689.332 553.895 686.768 550.773 684.031 549.733 L 814.61 534.57 Z " fill="rgb(113,113,113)" vector-effect="non-scaling-stroke" stroke-width="1" stroke="rgb(0,0,0)" stroke-linejoin="miter" stroke-linecap="square" stroke-miterlimit="3"/><line x1="686.18" y1="550.714" x2="663.451" y2="524.116" vector-effect="non-scaling-stroke" stroke-width="1" stroke="rgb(0,0,0)" stroke-linejoin="miter" stroke-linecap="square" stroke-miterlimit="3"/><path d=" M 792.782 705.671 L 842.267 700.071 L 844.401 703.129 L 847.401 706.533 L 849.017 709.36 L 850.978 713.225 L 852.536 717.725 L 852.544 719.935 L 851.749 721.072 L 850.068 722.982 L 845.736 727.073 L 841.097 730.713 L 789.56 720.435 L 796.181 716.462 L 797.207 716.022 L 796.997 712.514 L 792.782 705.671 Z " fill="rgb(132,132,132)"/><path d=" M 671.72 532.977 L 827.569 524.474 L 815.065 532.159 L 813.796 534.846 L 813.116 536.061 L 811.532 537.148 L 808.205 544.492 L 806.894 551.833 L 689.036 551.771 L 686.845 550.841 L 671.72 532.977 Z " fill="rgb(132,132,132)"/></g></g><g class="leg-front-left"><path d=" M 415.019 564.341 L 413.598 565.914 L 380.598 588.27 L 351.574 597.914 L 313.598 614.571 L 270.598 639.914 L 237.783 661.914 L 208.77 681.553 L 205.283 685.914 L 198.037 686.692 L 162.598 700.914 L 161.598 695.914 L 159.772 701.366 Q 128.225 694.678 137.598 683.914 Q 151.19 668.304 201.656 632.914 L 219.783 619.832 L 243.783 603.914 L 265.598 588.27 L 291.598 572.489 Q 301.989 566.317 306.861 561.969 C 312.996 556.493 317.841 549.485 321.598 543.914 Q 325.772 537.726 326.593 516.951 L 415.019 564.341 Z  M 416.308 562.914 L 436.598 539.914" fill-rule="evenodd" fill="rgb(113,113,113)" vector-effect="non-scaling-stroke" stroke-width="1" stroke="rgb(0,0,0)" stroke-linejoin="miter" stroke-linecap="square" stroke-miterlimit="3"/><path d=" M 328.091 510.641 L 417.255 558.513 L 415.138 561.082 L 413.27 564.401 L 412.657 564.996 L 408.843 567.55 L 327.535 523.536 L 328.091 510.641 Z " fill="rgb(132,132,132)"/></g></g></g></svg>