<?xml version="1.0" standalone="no"?><!-- Generator: Gravit.io --><svg xmlns="http://www.w3.org/2000/svg" xmlns:xlink="http://www.w3.org/1999/xlink" style="isolation:isolate" viewBox="0 0 1300 900"><defs><clipPath id="_clipPath_SbW7qt6wNhFQXpz3riXq2WH78KCwUnGd"><rect width="1300" height="900"/></clipPath></defs><g clip-path="url(#_clipPath_SbW7qt6wNhFQXpz3riXq2WH78KCwUnGd)"><g style="isolation:isolate" class="cat"><g class="leg-front-right"><path d=" M 467.097 565.014 L 440.598 619.832 L 426.598 648.994 L 401.598 696.255 L 386.598 725.417 L 341.161 806.178 L 323.451 812.901 Q 309.973 817.653 304.451 812.901 Q 301.564 810.415 299.451 803.534 L 299.451 793.795 L 302.451 782.734 L 323.451 768.656 L 341.598 718.378 L 351.598 699.272 L 363.598 676.144 L 375.598 654.765 L 386.598 633.607 L 395.598 612.449 Q 396.944 598.972 395.598 591.677 C 394.469 585.556 393.501 580.955 390.451 575.588 C 388.468 572.098 385.229 567.591 380.669 562.014 L 467.097 565.014 Z " fill="rgb(255,84,138)" vector-effect="non-scaling-stroke" stroke-width="1" stroke="rgb(0,0,0)" stroke-linejoin="miter" stroke-linecap="square" stroke-miterlimit="3"/></g><g class="leg-back-right"><g class="bottom"><path d=" M 999.872 595.446 Q 1000.236 595.704 1000.451 595.914 C 1003.22 599.682 989.222 628.741 987.451 635.612 Q 986.703 638.517 978.451 650.914 L 968.451 673.969 L 959.451 687.969 L 953.451 698.873 L 943.327 711.27 L 932.451 726.914 Q 909.738 755.017 901.451 747.914 Q 894.451 741.914 906.451 711.27 L 932.451 671.049 L 945.451 641.01 L 948.451 619.969 L 947.025 619.179 L 999.872 595.446 Z " fill="rgb(255,84,138)" vector-effect="non-scaling-stroke" stroke-width="1" stroke="rgb(0,0,0)" stroke-linejoin="miter" stroke-linecap="square" stroke-miterlimit="3"/><path d=" M 946.383 617.326 L 949.846 619.389 L 948.763 627.203 L 995.969 610.239 L 997.351 606.469 L 998.772 601.711 L 999.017 600.848 L 999.479 598.357 L 999.51 597.154 L 997.6 595.119 L 996.991 594.614 L 946.383 617.326 Z " fill="rgb(219,201,180)"/></g><g class="top"><path d=" M 763.223 535.969 C 764.529 533.712 766.076 532.042 767.845 530.914 C 774.24 526.835 781.301 528.243 788.451 529.914 Q 795.588 531.581 806.451 539.914 L 825.451 551.414 L 854.451 572.489 L 886.451 588.27 L 919.451 603.914 L 947.025 619.179 L 999.997 595.493 C 993.502 589.378 981.315 583.185 963.451 576.914 L 948.451 568.914 L 936.451 562.914 L 912.451 545.914 Q 896.135 533.094 888.451 524.914 Q 878.61 514.436 864.451 491.914 Q 850.013 451.827 849.551 428.914 Q 849.494 426.102 849.689 422.033 L 848.151 424.014 L 763.223 535.969 Z " fill="rgb(255,84,138)" vector-effect="non-scaling-stroke" stroke-width="1" stroke="rgb(0,0,0)" stroke-linejoin="miter" stroke-linecap="square" stroke-miterlimit="3"/><path d=" M 943.162 616.479 L 948.987 619.697 L 947.962 627.1 L 996.793 610.216 L 998.169 606.554 L 999.767 601.245 L 1000.259 598.615 L 1000.332 596.919 L 1000.086 596.255 L 998.447 594.76 L 995.516 592.487 L 992.526 590.451 L 943.162 616.479 Z " fill="rgb(255,84,138)"/></g></g><g class="body"><path d=" M 1130.691 218.891 C 1126.204 221.518 1121.072 224.278 1115.455 227.136 L 1072.899 246.906 L 1009.431 274.093 L 941.048 308.285 Q 906.165 319.392 891.075 331.956 Q 874.515 345.744 856.883 381.929 L 848.172 407.723 C 847.755 412.912 847.48 417.389 847.409 420.843 L 846.872 422.823 Q 832.914 469.978 816.872 490.723 Q 801.414 510.711 760.944 534.778 L 631.855 549.761 C 616.682 543.877 593.141 564.175 573.319 564.723 Q 567.347 564.888 556.319 564.723 L 541.319 564.723 L 520.319 564.723 L 496.554 564.723 L 465.319 564.723 L 464.817 564.823 L 377.872 561.823 L 377.172 561.723 L 364.029 561.723 L 364.029 561.723 L 362.739 563.15 L 274.314 515.76 C 274.623 508.753 274.618 500.378 274.319 490.723 L 265.102 467.723 L 252.319 447.723 C 248.378 440.156 240.223 431.188 236.171 424.723 C 232.059 418.162 228.503 411.675 224.879 405.274 L 346.786 295.014 C 349.342 297.099 351.9 299.048 354.527 300.723 C 374.319 314.723 369.895 305.583 391.349 313.545 C 395.987 321.001 409.652 326.723 421.319 328.723 L 446.582 331.956 L 538.637 331.956 L 630.691 331.956 L 646.472 331.956 L 722.007 325.805 Q 766.007 333.528 801.65 318.805 Q 821.225 310.72 856.883 295.134 L 941.048 258.312 L 1009.431 234.641 L 1062.034 213.6 Q 1088.118 204.064 1105.308 195.031 L 1130.691 218.891 Z " fill="rgb(255,84,138)" vector-effect="non-scaling-stroke" stroke-width="1" stroke="rgb(0,0,0)" stroke-linejoin="miter" stroke-linecap="square" stroke-miterlimit="3"/><path d=" M 705.263 457.24 L 713.059 473.237 L 730.68 475.707 L 717.876 488.064 L 720.971 505.587 L 705.263 497.228 L 689.554 505.587 L 692.65 488.064 L 679.845 475.707 L 697.468 473.237 L 705.263 457.24 Z " fill-rule="evenodd" fill="rgb(255,213,0)" vector-effect="non-scaling-stroke" stroke-width="1" stroke="rgb(0,0,0)" stroke-linejoin="round" stroke-linecap="butt" stroke-miterlimit="1.414"/><g class="tail-top"><path d=" M 1118.988 205.747 L 1132.971 218.891 Q 1148.109 210.283 1156.368 203.079 Q 1183.102 179.761 1203.711 116.285 L 1208.971 105.764 Q 1213.339 101.145 1214.231 97.874 Q 1215.517 93.161 1211.601 84.723 Q 1197.037 86.712 1193.19 92.614 C 1173.389 122.994 1158.024 160.745 1124.807 184.668 C 1120.091 188.065 1114.38 191.517 1107.588 195.031 L 1118.988 205.747 Z " fill="rgb(255,84,138)" vector-effect="non-scaling-stroke" stroke-width="1" stroke="rgb(0,0,0)" stroke-linejoin="miter" stroke-linecap="square" stroke-miterlimit="3"/><path d=" M 1105.01 197.86 L 1108.594 195.984 L 1113.246 193.481 L 1136.502 215.353 L 1131.892 218.023 L 1127.354 220.592 L 1105.01 197.86 Z " fill="rgb(255,84,138)"/></g></g><g style="isolation:isolate" class="head"><path d=" M 218.416 391.875 C 217.636 390.691 216.841 389.51 216.023 388.331 C 208.747 377.849 200.462 375.91 189.216 366.048 C 182.275 359.96 176.267 359.285 165.76 359.011 Q 160.258 367.032 151.729 369.014 C 148.519 369.76 144.988 368.529 141.135 369.014 Q 133.023 361.455 128.849 360.018 Q 124.062 358.37 117.464 351.558 L 109.574 341.037 L 125.354 314.736 L 122.724 283.174 L 135.875 259.503 L 135.875 225.311 L 141.135 185.859 L 151.656 141.147 C 158.667 144.457 178.834 187.612 209.519 209.53 L 220.039 185.859 L 227.93 149.037 L 238.45 127.996 L 256.861 167.448 L 267.382 191.119 L 280.533 214.79 L 291.053 235.832 L 301.574 259.503 Q 322.551 274.584 333.598 283.174 C 334.516 283.888 335.42 284.613 336.321 285.341 L 218.416 391.875 Z " fill="rgb(255,84,138)" vector-effect="non-scaling-stroke" stroke-width="1" stroke="rgb(0,0,0)" stroke-linejoin="miter" stroke-linecap="square" stroke-miterlimit="3"/><path d=" M 109.772 340.984 Q 115.273 332.159 118.124 327.385 C 120.823 328.047 123.113 330.746 125.979 333.622 C 126.321 335.786 126.831 338.805 125.979 341.476 Q 124.583 345.852 116.869 350.067 L 109.772 340.984 Z " fill="rgb(255,135,135)" vector-effect="non-scaling-stroke" stroke-width="0.1" stroke="rgb(0,0,0)" stroke-linejoin="miter" stroke-linecap="square" stroke-miterlimit="3"/><path d=" M 147.783 229.914 L 148.283 218.414 L 151.283 201.414 L 155.283 182.914 L 159.165 166.076 L 169.783 181.414 L 181.283 201.414 L 187.783 215.414 L 189.783 225.914 L 193.783 238.414 L 178.783 244.414 L 164.783 243.414 L 148.283 248.414 L 147.783 229.914 Z " fill="rgb(255,185,207)" vector-effect="non-scaling-stroke" stroke-width="1" stroke="rgb(219,170,170)" stroke-linejoin="miter" stroke-linecap="square" stroke-miterlimit="3"/><g style="isolation:isolate" class="cat-eye"><path d=" M 135.875 280.544 L 141.135 275.284 L 149.026 272.653 L 156.916 272.653 L 164.806 275.284 L 170.067 277.914 L 172.697 280.544 L 170.067 283.174 L 164.806 288.434 L 156.916 293.695 L 146.396 296.325 L 142.451 295.914 L 138.451 293.914 L 136.248 292.626 L 135.875 288.434 L 135.875 280.544 Z " fill="rgb(253,231,119)" vector-effect="non-scaling-stroke" stroke-width="2.63" stroke="rgb(0,0,0)" stroke-opacity="0.22" stroke-linejoin="miter" stroke-linecap="square" stroke-miterlimit="3"/><path d=" M 148.099 273.914 L 143.238 275.284 L 136.451 280.83 L 136.451 283.603 L 136.451 286.376 L 136.451 289.149 L 136.451 291.922 L 143.238 294.695 L 146.132 294.914 L 150.451 293.914 L 151.451 289.149 L 152.451 286.376 L 152.451 283.603 L 151.451 280.83 L 150.451 273.914 L 148.099 273.914 Z " fill="rgb(40,40,40)" vector-effect="non-scaling-stroke" stroke-width="2.63" stroke="rgb(0,0,0)" stroke-linejoin="miter" stroke-linecap="square" stroke-miterlimit="3"/></g><g style="isolation:isolate" class="whiskers"><path d=" M 138.511 321.014 L 160.357 316.399 L 185.588 313.937" fill="none" vector-effect="non-scaling-stroke" stroke-width="1" stroke="rgb(255,255,255)" stroke-linejoin="miter" stroke-linecap="square" stroke-miterlimit="3"/><path d=" M 138.677 327.147 L 160.937 325.396 L 186.274 326.219" fill="none" vector-effect="non-scaling-stroke" stroke-width="1" stroke="rgb(255,255,255)" stroke-linejoin="miter" stroke-linecap="square" stroke-miterlimit="3"/><path d=" M 138.851 332.08 L 161.134 333.499 L 186.1 337.901" fill="none" vector-effect="non-scaling-stroke" stroke-width="1" stroke="rgb(255,255,255)" stroke-linejoin="miter" stroke-linecap="square" stroke-miterlimit="3"/></g><g style="isolation:isolate" class="right-ear-shadow"><path d=" M 298.59 257.456 L 287.783 265.914 L 266.283 267.914 L 242.783 266.414 L 224.783 254.914 L 215.783 243.414 L 207.783 226.914 L 210.432 212.789 L 298.59 257.456 Z " fill="rgb(251,134,171)"/><path d=" M 281.78 219.689 L 288.783 233.914 L 299.283 256.914 L 298.59 257.456 L 210.432 212.789 L 210.783 210.914 L 221.783 188.914 L 222.862 183.521 L 281.78 219.689 Z " fill="rgb(251,134,171)"/><path d=" M 257.442 169.379 L 272.783 201.414 L 281.78 219.689 L 222.862 183.521 L 226.783 163.914 L 229.783 145.914 L 230.63 144.455 L 257.442 169.379 Z " fill="rgb(251,134,171)"/><path d=" M 257.442 169.379 L 238.783 130.414 L 230.63 144.455 L 257.442 169.379 Z " fill="rgb(251,134,171)"/><line x1="210.324" y1="210.044" x2="257.442" y2="235.914" vector-effect="non-scaling-stroke" stroke-width="1" stroke="rgb(0,0,0)" stroke-linejoin="miter" stroke-linecap="square" stroke-miterlimit="3"/></g><path d=" M 349.065 296.205 C 344.904 292.779 340.75 288.977 336.321 285.341 L 218.416 391.875 C 221.558 396.685 224.378 401.549 227.159 406.465 L 349.065 296.205 Z " fill="rgb(255,213,0)" vector-effect="non-scaling-stroke" stroke-width="1" stroke="rgb(0,0,0)" stroke-linejoin="miter" stroke-linecap="square" stroke-miterlimit="3"/></g><g class="leg-back-left"><g class="bottom"><path d=" M 803.771 718.701 Q 803.845 719.323 803.845 719.914 Q 803.845 725.164 735.845 772.914 L 694.845 807.914 L 668.845 814.914 Q 648.316 801.081 650.845 788.914 Q 653.534 775.977 679.845 772.914 L 726.699 726.914 L 745.844 715.133 L 803.771 718.701 Z " fill="rgb(255,84,138)" vector-effect="non-scaling-stroke" stroke-width="1" stroke="rgb(0,0,0)" stroke-linejoin="miter" stroke-linecap="square" stroke-miterlimit="3"/><path d=" M 742.782 705.671 L 792.267 700.071 L 794.401 703.129 L 797.401 706.533 L 799.017 709.36 L 800.978 713.225 L 802.536 717.725 L 802.544 719.935 L 801.749 721.072 L 800.068 722.982 L 795.736 727.073 L 791.097 730.713 L 739.56 720.435 L 746.181 716.462 L 747.207 716.022 L 746.997 712.514 L 742.782 705.671 Z " fill="rgb(219,201,180)"/></g><g class="top"><path d=" M 764.61 534.57 Q 759.908 541.431 758.451 551.414 L 758.451 572.489 L 758.451 603.914 L 758.451 635.612 L 767.845 661.914 L 779.492 681.553 L 794.533 700.914 C 800.253 707.973 803.338 713.904 803.771 718.701 L 745.844 715.133 L 746.845 714.516 L 703.218 650.914 L 694.845 627.914 Q 693.242 619.173 691.845 614.571 C 683.793 588.038 654.682 575.76 641.451 556.914 C 639.332 553.895 636.768 550.773 634.031 549.733 L 764.61 534.57 Z " fill="rgb(255,84,138)" vector-effect="non-scaling-stroke" stroke-width="1" stroke="rgb(0,0,0)" stroke-linejoin="miter" stroke-linecap="square" stroke-miterlimit="3"/><line x1="636.18" y1="550.714" x2="613.451" y2="524.116" vector-effect="non-scaling-stroke" stroke-width="1" stroke="rgb(0,0,0)" stroke-linejoin="miter" stroke-linecap="square" stroke-miterlimit="3"/><path d=" M 742.782 705.671 L 792.267 700.071 L 794.401 703.129 L 797.401 706.533 L 799.017 709.36 L 800.978 713.225 L 802.536 717.725 L 802.544 719.935 L 801.749 721.072 L 800.068 722.982 L 795.736 727.073 L 791.097 730.713 L 739.56 720.435 L 746.181 716.462 L 747.207 716.022 L 746.997 712.514 L 742.782 705.671 Z " fill="rgb(255,84,138)"/><path d=" M 621.72 532.977 L 777.569 524.474 L 765.065 532.159 L 763.796 534.846 L 763.116 536.061 L 761.532 537.148 L 758.205 544.492 L 756.894 551.833 L 639.036 551.771 L 636.845 550.841 L 621.72 532.977 Z " fill="rgb(255,84,138)"/></g></g><g class="leg-front-left"><path d=" M 365.019 564.341 L 363.598 565.914 L 330.598 588.27 L 301.574 597.914 L 263.598 614.571 L 220.598 639.914 L 187.783 661.914 L 158.77 681.553 L 155.283 685.914 L 148.037 686.692 L 112.598 700.914 L 111.598 695.914 L 109.772 701.366 Q 78.225 694.678 87.598 683.914 Q 101.19 668.304 151.656 632.914 L 169.783 619.832 L 193.783 603.914 L 215.598 588.27 L 241.598 572.489 Q 251.989 566.317 256.861 561.969 C 262.996 556.493 267.841 549.485 271.598 543.914 Q 275.772 537.726 276.593 516.951 L 365.019 564.341 Z  M 366.308 562.914 L 386.598 539.914" fill-rule="evenodd" fill="rgb(255,84,138)" vector-effect="non-scaling-stroke" stroke-width="1" stroke="rgb(0,0,0)" stroke-linejoin="miter" stroke-linecap="square" stroke-miterlimit="3"/><path d=" M 278.091 510.641 L 367.255 558.513 L 365.138 561.082 L 363.27 564.401 L 362.657 564.996 L 358.843 567.55 L 277.535 523.536 L 278.091 510.641 Z " fill="rgb(255,84,138)"/></g></g></g></svg>