<?xml version="1.0" standalone="no"?><!-- Generator: Gravit.io --><svg xmlns="http://www.w3.org/2000/svg" xmlns:xlink="http://www.w3.org/1999/xlink" style="isolation:isolate" viewBox="0 0 1140 800"><defs><clipPath id="_clipPath_R4PEIMiYmziESWbOVZZknuQjercZA3NF"><rect width="1140" height="800" /></clipPath></defs><g clip-path="url(#_clipPath_R4PEIMiYmziESWbOVZZknuQjercZA3NF)"><g class="front-leg-left"><g class="bottom"><path d=" M 306.379 627.57 L 300.626 643.39 L 303.256 698.623 L 287.475 735.445 L 271.695 761.747 L 234.873 761.747 L 234.873 735.445 L 242.763 698.623 L 248.023 672.322 L 248.023 635.5 L 250.444 627.756 L 306.379 627.57 Z " fill="rgb(226,215,234)"/><path d=" M 298.662 627.596 L 305.601 629.324 L 300 645.231 L 300.965 659.711 L 247.678 645.959 L 247.385 639.692 L 251.365 627.753 L 298.662 627.596 Z " fill="rgb(204,196,210)"/><path d=" M 298.662 627.596 L 254.791 616.672 L 252.923 623.077 L 251.365 627.753 L 298.662 627.596 Z " fill="rgb(187,169,165)"/><path d=" M 300.965 659.711 L 302.308 679.846 L 248.769 669.231 L 247.678 645.959 L 300.965 659.711 Z " fill="rgb(214,205,221)"/><path d=" M 306.218 627.571 L 305.601 629.324 L 298.662 627.596 L 306.218 627.571 Z " fill="rgb(185,167,164)"/></g><g class="top"><path d=" M 306.379 627.57 L 311.147 614.459 L 326.927 569.747 L 337.448 540.815 L 366.38 506.623 L 376.38 497.734 L 289.872 498.499 L 292.736 501.363 L 284.845 527.664 L 271.695 556.596 L 261.174 593.418 L 250.444 627.756 L 306.379 627.57 Z " fill="rgb(199,191,206)"/><path d=" M 306.218 627.571 L 311.538 612.462 L 317.442 596.879 L 265.159 581.124 L 254.791 616.672 L 298.662 627.596 L 306.218 627.571 Z " fill="rgb(195,187,202)"/><path d=" M 317.442 596.879 L 332.809 556.32 L 278.614 542.686 L 277.385 546 L 269.077 567.692 L 265.159 581.124 L 317.442 596.879 Z " fill="rgb(191,183,198)"/><path d=" M 332.809 556.32 L 339.692 538.154 L 351.044 525.171 L 292.686 504.745 L 278.614 542.686 L 332.809 556.32 Z " fill="rgb(191,183,198)"/><path d=" M 376.593 498.302 L 367.313 506.563 L 351.044 525.171 L 292.686 504.745 L 293.333 503 L 288.582 497.645 L 376.593 498.302 Z " fill="rgb(200,191,208)"/></g></g><g class="back-leg-left"><g class="bottom"><path d=" M 720.69 634.159 L 745.119 669.692 L 760.9 709.144 L 784.571 745.966 L 760.9 767.007 L 734.599 753.856 L 716.188 714.404 L 689.886 674.952 L 668.845 643.39 L 666.321 633.925 L 720.69 634.159 Z " fill="rgb(226,215,234)"/><path d=" M 748.689 680.791 L 762.462 713.846 L 726.769 735.385 L 710.154 706.462 L 708.356 703.739 L 748.689 680.791 Z " fill="rgb(214,205,221)"/><path d=" M 728.523 692.265 L 748.689 680.791 L 744 669.538 L 730.499 650.167 L 688.422 673.544 L 708.356 703.739 L 728.523 692.265 Z " fill="rgb(204,196,210)"/><path d=" M 719.337 634.153 L 730.499 650.167 L 688.422 673.544 L 668.308 643.077 L 666.291 633.925 L 719.337 634.153 Z " fill="rgb(199,191,206)"/></g><g class="top"><path d=" M 720.69 634.159 L 716.188 627.61 L 700.407 548.705 L 700.407 511.955 L 633.61 511.28 C 635.008 520.139 636.216 527.196 637.284 532.925 L 642.544 569.747 L 658.325 603.938 L 666.321 633.925 L 720.69 634.159 Z " fill="rgb(193,175,169)"/><path d=" M 719.337 634.153 L 715.692 628.923 L 712.945 615.405 L 664.456 625.594 L 666.291 633.925 L 719.337 634.153 Z " fill="rgb(195,187,202)"/><path d=" M 712.945 615.405 L 702.139 562.239 L 642.471 568.826 L 643.077 572.308 L 660.308 606.769 L 664.456 625.594 L 712.945 615.405 Z " fill="rgb(191,183,198)"/><path d=" M 702.139 562.239 L 700.308 553.231 L 700.765 516.048 L 634.894 520.531 L 640.615 558.154 L 642.471 568.826 L 702.139 562.239 Z " fill="rgb(191,183,198)"/></g></g><g class="neck"><path d=" M 305.531 224.156 C 294.102 216.917 284.585 212.895 276.955 212.048 C 267.065 210.95 256.51 214.301 248.023 212.048 C 240.258 207.097 236.713 199.43 229.612 193.637 C 228.772 192.951 227.877 192.257 226.905 191.551 L 72.123 296.85 L 72.123 296.85 L 82.325 317.253 L 92.845 340.925 L 100.736 359.336 L 109.896 382.236 L 305.531 224.156 Z " fill="rgb(228,214,239)"/><path d=" M 118.808 375.035 L 112.757 362.13 L 103.101 342.817 L 98.272 355.598 L 109.502 382.554 L 118.808 375.035 Z " fill="rgb(226,215,234)"/><path d=" M 134.702 362.192 L 105.373 316.402 L 87.369 329.489 L 98.433 355.685 L 103.215 343.337 L 118.43 375.34 L 134.702 362.192 Z " fill="rgb(219,208,227)"/><path d=" M 208.582 302.494 L 73.846 300.497 C 102.693 311.151 140.672 319.749 176.827 328.153 L 208.582 302.494 Z " fill="rgb(220,207,230)"/><path d=" M 154.882 345.885 L 138.056 322.02 L 105.373 316.686 L 134.622 362.257 L 154.882 345.885 Z " fill="rgb(219,208,227)"/><path d=" M 167.481 335.705 L 163.609 332.569 L 138.727 323.025 L 154.861 345.903 L 167.481 335.705 Z " fill="rgb(213,201,223)"/><path d=" M 178.054 327.161 L 73.278 299.645 L 87.297 329.489 L 104.74 319.572 L 138.888 323.219 L 165.553 337.263 L 178.054 327.161 Z " fill="rgb(213,201,223)"/><path d=" M 230.803 284.417 L 223.886 282.803 Q 182.191 290.961 73.385 300.346 L 113.077 301.846 L 208.38 302.895 L 230.803 284.417 Z " fill="rgb(220,207,230)"/></g><g class="mid-body"><path d=" M 540.518 503.111 L 488.533 502.626 L 482.106 490.842 L 455.804 475.062 L 424.243 480.322 L 390.051 485.582 L 376.38 497.734 L 289.872 498.499 L 282.467 491.095 L 350.163 246.24 L 432.133 246.24 L 524.188 246.24 L 539.969 246.24 L 594.396 241.808 L 540.518 503.111 Z " fill="rgb(228,214,239)"/><path d=" M 587.954 273.048 L 342.289 274.719 L 349.67 248.021 L 531.125 248.466 L 594.144 243.026 L 587.954 273.048 Z " fill="rgb(228,214,239)"/><path d=" M 376.593 498.302 L 389.5 486.813 L 455.809 476.047 L 545.341 479.723 L 553.77 438.84 L 297.084 438.226 L 282.291 491.734 L 288.089 497.089 L 288.582 497.645 L 376.593 498.302 Z " fill="rgb(200,191,208)"/><path d=" M 569.162 364.192 L 321.547 349.742 L 333.713 305.737 L 557.094 324.806 L 576.933 326.5 L 569.162 364.192 Z " fill="rgb(220,207,230)"/><path d=" M 576.906 326.633 L 333.622 306.067 L 342.367 274.436 L 587.979 272.93 L 576.906 326.633 Z " fill="rgb(220,207,230)"/><path d=" M 553.77 438.84 L 297.084 438.226 L 310.535 389.574 L 562.883 394.643 L 553.77 438.84 Z " fill="rgb(208,198,217)"/><path d=" M 562.883 394.643 L 310.535 389.574 L 321.547 349.742 L 569.162 364.192 L 562.883 394.643 Z " fill="rgb(214,203,223)"/></g><g class="back-body"><path d=" M 776.896 253.842 Q 763.957 268.347 750.38 296.212 L 734.599 375.116 L 716.188 454.021 L 700.407 501.363 L 700.407 511.955 L 633.61 511.28 Q 632.873 506.86 632.023 501.363 Q 623.526 497.924 600.462 485.582 L 579.421 496.103 L 576.796 503.451 L 540.518 503.111 L 594.396 241.808 L 615.503 240.089 Q 659.503 247.812 695.147 233.089 C 707.07 228.164 723.468 221.153 744.568 211.948 L 776.896 253.842 Z " fill="rgb(228,214,239)"/><path d=" M 776.781 253.693 C 775.877 254.408 775.612 254.857 775.953 255.053 L 764.281 271.849 L 587.954 273.048 L 594.144 243.026 L 615.654 241.169 L 626.556 243.124 L 648.71 243.692 L 671.432 241.988 L 687.337 238.012 L 723.124 223.811 C 724.279 224.52 733.244 221.45 747.547 215.808 L 776.781 253.693 Z " fill="rgb(228,214,239)"/><path d=" M 545.341 479.723 L 593.609 481.704 L 600.423 486.55 L 614.703 494.041 L 623.452 498.447 L 626.322 499.839 L 629.798 501.411 L 632.135 502.392 L 634.894 520.531 L 700.765 516.048 L 700.97 499.314 L 716.308 457.278 L 720.289 439.239 L 553.77 438.84 L 545.341 479.723 Z " fill="rgb(200,191,208)"/><path d=" M 569.162 364.192 L 734.692 373.851 L 741.195 340.522 L 576.933 326.5 L 569.162 364.192 Z " fill="rgb(220,207,230)"/><path d=" M 576.906 326.633 L 741.195 340.522 L 748.118 305.041 L 752.663 288.568 L 764.281 271.849 L 587.979 272.93 L 576.906 326.633 Z " fill="rgb(220,207,230)"/><path d=" M 553.77 438.84 L 720.289 439.239 L 729.392 397.988 L 562.883 394.643 L 553.77 438.84 Z " fill="rgb(208,198,217)"/><path d=" M 562.883 394.643 L 729.392 397.988 L 734.485 374.911 L 734.692 373.851 L 569.162 364.192 L 562.883 394.643 Z " fill="rgb(214,203,223)"/></g><g class="head"><path d=" M 73.123 297.85 L 72.804 297.212 L 49.133 278.801 L 33.352 273.541 L 17.571 273.541 L 9.681 265.651 L 1.79 255.13 L 17.571 228.829 L 14.941 197.267 L 28.092 173.596 L 28.092 139.404 L 33.352 99.952 L 43.873 55.24 C 50.884 58.55 71.051 101.705 101.736 123.623 L 112.256 99.952 L 120.147 63.13 L 130.667 42.089 L 149.078 81.541 L 159.599 105.212 L 172.749 128.884 L 183.27 149.925 L 193.79 173.596 Q 216.271 183.916 227.905 192.551 L 73.123 297.85 L 73.123 297.85 Z " fill="rgb(228,214,239)"/><path d=" M 25.462 199.897 L 33.352 189.377 L 41.243 186.747 L 49.133 186.747 L 57.023 189.377 L 62.284 192.007 L 64.914 194.637 L 62.284 197.267 L 57.023 202.527 L 49.133 207.788 L 38.612 210.418 L 33.352 210.418 L 28.092 210.418 L 22.832 207.788 L 25.462 199.897 Z " fill="rgb(253,243,140)" vector-effect="non-scaling-stroke" stroke-width="2.63" stroke="rgb(0,0,0)" stroke-opacity="0.22" stroke-linejoin="miter" stroke-linecap="square" stroke-miterlimit="3"/><path d=" M 41.243 190.692 L 38.612 192.946 L 38.612 195.201 L 38.612 197.455 L 38.612 199.709 L 38.612 201.964 L 38.612 204.218 L 41.243 206.473 L 43.873 204.218 L 43.873 201.964 L 43.873 199.709 L 43.873 197.455 L 43.873 195.201 L 43.873 192.946 L 41.243 190.692 Z " fill="rgb(40,40,40)" vector-effect="non-scaling-stroke" stroke-width="2.63" stroke="rgb(0,0,0)" stroke-linejoin="miter" stroke-linecap="square" stroke-miterlimit="3"/><path d=" M 1.989 255.077 Q 7.49 246.252 10.341 241.479 C 13.039 242.14 15.33 244.839 18.196 247.715 C 18.538 249.879 19.048 252.898 18.196 255.569 Q 16.8 259.945 9.086 264.16 L 1.989 255.077 Z " fill="rgb(255,216,216)" vector-effect="non-scaling-stroke" stroke-width="0.1" stroke="rgb(0,0,0)" stroke-linejoin="miter" stroke-linecap="square" stroke-miterlimit="3"/><path d=" M 30.728 235.107 L 52.574 230.492 L 77.805 228.031" fill="none" vector-effect="non-scaling-stroke" stroke-width="1" stroke="rgb(255,255,255)" stroke-linejoin="miter" stroke-linecap="square" stroke-miterlimit="3"/><path d=" M 30.894 241.24 L 53.154 239.489 L 78.491 240.312" fill="none" vector-effect="non-scaling-stroke" stroke-width="1" stroke="rgb(255,255,255)" stroke-linejoin="miter" stroke-linecap="square" stroke-miterlimit="3"/><path d=" M 31.068 246.173 L 53.351 247.592 L 78.317 251.994" fill="none" vector-effect="non-scaling-stroke" stroke-width="1" stroke="rgb(255,255,255)" stroke-linejoin="miter" stroke-linecap="square" stroke-miterlimit="3"/><path d=" M 40 144.007 L 40.5 132.507 L 43.5 115.507 L 47.5 97.007 L 51.382 80.17 L 62 95.507 L 73.5 115.507 L 80 129.507 L 82 140.007 L 86 152.507 L 71 158.507 L 57 157.507 L 40.5 162.507 L 40 144.007 Z " fill="rgb(176,136,136)" vector-effect="non-scaling-stroke" stroke-width="1" stroke="rgb(219,170,170)" stroke-linejoin="miter" stroke-linecap="square" stroke-miterlimit="3"/><path d=" M 190.807 171.549 L 180 180.007 L 158.5 182.007 L 135 180.507 L 117 169.007 L 108 157.507 L 100 141.007 L 102.648 126.882 L 190.807 171.549 Z " fill="rgb(218,205,227)"/><path d=" M 173.997 133.782 L 181 148.007 L 191.5 171.007 L 190.807 171.549 L 102.648 126.882 L 103 125.007 L 114 103.007 L 115.078 97.614 L 173.997 133.782 Z " fill="rgb(210,199,219)"/><path d=" M 149.659 83.472 L 165 115.507 L 173.997 133.782 L 115.078 97.614 L 119 78.007 L 122 60.007 L 122.847 58.548 L 149.659 83.472 Z " fill="rgb(214,203,223)"/><path d=" M 149.659 83.472 L 131 44.507 L 122.847 58.548 L 149.659 83.472 Z " fill="rgb(221,209,229)"/></g><g class="bottom-tail"><path d=" M 1042.105 121.65 Q 1030.284 130.565 1008.951 141.419 L 966.395 161.19 L 902.927 188.377 L 834.544 222.568 Q 799.661 233.676 784.571 246.24 C 782.033 248.353 779.476 250.861 776.896 253.842 L 744.568 211.948 Q 747.3 210.764 750.38 209.418 L 834.544 172.596 L 902.927 148.925 L 955.53 127.884 C 981.869 118.254 1001.472 109.006 1014.32 100.139 L 1042.105 121.65 Z " fill="rgb(228,214,239)"/><path d=" M 776.781 253.693 C 790.963 241.851 973.934 159.639 1011.967 133.341 C 1040.936 113.311 1015.654 110.52 1011.967 108.34 C 1004.67 104.025 815.684 189.029 747.547 215.808 L 776.781 253.693 Z " fill="rgb(224,210,234)"/></g><g class="top-tail"><path d=" M 1041.105 122.65 C 1043.239 121.158 1045.004 119.742 1046.585 118.363 Q 1073.319 95.044 1093.927 31.568 L 1099.188 21.048 Q 1103.556 16.428 1104.448 13.158 Q 1105.733 8.444 1101.818 0.007 Q 1087.254 1.995 1083.407 7.897 C 1063.606 38.277 1048.24 76.029 1015.023 99.952 Q 1014.201 100.544 1013.32 101.139 L 1041.105 122.65 Z " fill="rgb(228,214,239)"/></g><g class="upper-body"><path d=" M 350.163 246.24 L 340.078 246.24 L 311.147 227.829 Q 308.254 225.849 305.531 224.156 L 109.896 382.236 L 111.256 385.637 L 124.407 409.308 L 134.927 438.24 L 134.927 485.582 L 134.927 491.198 L 234.632 497.485 L 248.023 485.582 L 276.955 485.582 L 282.467 491.095 L 350.163 246.24 Z " fill="rgb(228,214,239)"/><path d=" M 349.67 248.021 L 341 248 L 292 218 L 270.667 263 L 256.451 275.303 L 342.289 274.719 L 349.67 248.021 Z " fill="rgb(228,214,239)"/><path d=" M 118.808 375.035 L 156.291 454.983 L 136.027 455.362 L 134.572 435.722 L 118.569 398.624 L 111.25 386.75 L 109.502 382.554 L 118.808 375.035 Z " fill="rgb(226,215,234)"/><path d=" M 134.702 362.192 L 193.689 454.284 L 156.291 454.983 L 118.43 375.34 L 134.702 362.192 Z " fill="rgb(219,208,227)"/><path d=" M 154.882 345.885 L 241.375 468.563 L 213.86 453.907 L 193.689 454.284 L 134.622 362.257 L 154.882 345.885 Z " fill="rgb(219,208,227)"/><path d=" M 167.481 335.705 L 181.618 347.152 L 213.116 376.975 L 239.717 412.855 L 275.211 486.563 L 241.549 468.822 L 154.861 345.903 L 167.481 335.705 Z " fill="rgb(213,201,223)"/><path d=" M 178.054 327.161 L 248.616 345.692 L 248.697 346.016 L 173.423 341.782 L 170.75 340 L 165.553 337.263 L 178.054 327.161 Z " fill="rgb(213,201,223)"/><path d=" M 173.423 341.782 L 181.25 347 L 212.166 376.331 L 222.295 389.44 L 259.297 389.149 L 255.254 372.103 L 248.697 346.016 L 173.423 341.782 Z " fill="rgb(214,203,223)"/><path d=" M 222.295 389.44 L 223.5 391 L 239 411.75 L 252.395 439.385 L 269.209 439.385 L 262.993 404.735 L 259.297 389.149 L 222.295 389.44 Z " fill="rgb(213,201,223)"/><path d=" M 252.395 439.385 L 259.537 454.118 L 275.219 486.578 L 274.598 469.893 L 269.816 442.769 L 269.209 439.385 L 252.395 439.385 Z " fill="rgb(213,201,223)"/><path d=" M 297.084 438.226 L 268.99 438.159 Q 273.098 459.655 275.223 486.57 L 276.956 486.578 L 279.967 489.589 L 282.291 491.734 L 297.084 438.226 Z " fill="rgb(213,201,223)"/><path d=" M 333.713 305.737 L 315.189 304.156 L 314.932 304.501 L 314.032 304.057 L 208.582 302.494 L 176.827 328.153 C 200.663 333.723 223.73 339.205 242.785 345.146 L 321.547 349.742 L 333.713 305.737 Z " fill="rgb(220,207,230)"/><path d=" M 313.18 303.636 L 304 275.75 L 258.25 274.75 C 242.873 279.756 241.473 275.694 225.25 284.75 L 313.18 303.636 Z " fill="rgb(220,207,230)"/><path d=" M 342.367 274.436 L 308.183 274.646 L 225.699 285.523 L 286.429 298.213 L 314.841 304.479 L 333.622 306.067 L 342.367 274.436 Z " fill="rgb(220,207,230)"/><path d=" M 230.803 284.417 L 313.18 303.636 L 314.032 304.057 L 208.38 302.895 L 230.803 284.417 Z " fill="rgb(220,207,230)"/><path d=" M 310.535 389.574 L 259.01 388.539 C 262.275 403.204 265.603 419.796 268.99 438.159 L 297.084 438.226 L 310.535 389.574 Z " fill="rgb(208,198,217)"/><path d=" M 321.547 349.742 L 242.785 345.146 C 244.849 345.783 246.852 346.427 248.805 347.077 C 252.193 359.22 255.488 372.32 259.01 388.539 L 310.535 389.574 L 321.547 349.742 Z " fill="rgb(214,203,223)"/></g><g class="front-leg-right"><g class="bottom"><path d=" M 122.378 612.693 L 119.147 643.39 L 111.256 698.623 L 100.736 751.226 L 140.188 751.226 L 158.599 735.445 L 158.599 698.623 L 159.403 679.091 L 164.122 660.214 L 174.916 634.67 L 177.932 624.952 L 172.957 611.272 L 122.378 612.693 Z " fill="rgb(226,215,234)"/></g><g class="top"><path d=" M 122.378 612.693 L 124.407 593.418 L 134.927 540.815 L 134.927 491.198 L 234.632 497.485 L 224.352 506.623 L 192.79 540.815 L 173.56 579.988 L 172.571 610.208 L 172.957 611.272 L 122.378 612.693 Z " fill="rgb(226,215,234)"/><path d=" M 228.999 503.84 L 247.617 486.739 L 275.203 486.563 L 214.224 453.907 L 135.763 454.722 L 135.56 468.889 L 228.999 503.84 Z " fill="rgb(208,198,217)"/><path d=" M 185.181 558.285 L 172.5 589.5 L 124.5 598 L 132.338 557.161 L 185.181 558.285 Z " fill="rgb(222,212,230)"/><path d=" M 198.176 534.938 L 192 541.5 L 185.181 558.285 L 132.338 557.161 L 134 548.5 L 134.75 518.133 L 198.176 534.938 Z " fill="rgb(219,208,227)"/><path d=" M 228.999 503.84 L 216 516 L 198.176 534.938 L 134.75 518.133 L 135 508 L 135.56 468.889 L 228.999 503.84 Z " fill="rgb(213,201,223)"/></g></g><g class="back-leg-right"><g class="bottom"><path d=" M 567.941 633.294 L 576.79 668.692 L 582.051 708.144 L 595.201 734.445 L 589.941 758.116 L 550.489 760.747 L 539.969 713.404 L 524.188 671.322 L 509.202 636.355 L 567.941 633.294 Z " fill="rgb(226,215,234)"/></g><g class="top"><path d=" M 567.941 633.294 L 566.27 626.61 L 561.01 584.527 L 566.27 531.925 L 576.796 502.451 L 488.533 501.626 L 497.886 518.774 L 508.407 547.705 L 508.407 576.637 L 508.407 602.938 L 508.407 634.5 L 509.202 636.355 L 567.941 633.294 Z " fill="rgb(226,215,234)"/><path d=" M 561.759 592.881 L 563.9 610.44 L 566.47 629.713 Q 545 628.25 543.5 629 Q 541.245 629.707 508.495 635.707 L 508.672 627.38 L 508.396 591.146 L 561.759 592.881 Z " fill="rgb(222,212,230)"/><path d=" M 562.222 574.393 L 560.902 586.385 L 561.616 592.809 L 508.396 591.163 L 508.428 575.799 L 562.222 574.393 Z " fill="rgb(219,208,227)"/><path d=" M 565.124 542.499 L 562.562 570.938 L 562.206 574.393 L 508.426 575.788 L 508.475 549.742 L 504.547 538.922 L 565.124 542.499 Z " fill="rgb(213,201,223)"/><path d=" M 565.124 542.499 L 566.216 533.377 L 570.75 520.75 L 579.413 497.055 L 600.465 486.57 L 593.613 481.703 L 455.828 476.051 L 482.25 492.25 L 497.938 520.719 L 501.563 530.766 L 504.516 538.922 L 565.124 542.499 Z " fill="rgb(208,198,217)"/></g></g></g></svg>