<?xml version="1.0" standalone="no"?><!-- Generator: Gravit.io --><svg xmlns="http://www.w3.org/2000/svg" xmlns:xlink="http://www.w3.org/1999/xlink" style="isolation:isolate" viewBox="0 0 306.092 139.745" width="306.092" height="139.745"><defs><clipPath id="_clipPath_luANFkhHBUqixxRnpnZAwjndX9NBgfhf"><rect width="306.092" height="139.745"/></clipPath></defs><g clip-path="url(#_clipPath_luANFkhHBUqixxRnpnZAwjndX9NBgfhf)"><g id="bowl"><path d=" M 1.702 69.872 C 1.702 31.309 70.279 0 154.748 0 C 239.216 0 307.794 31.309 307.794 69.872 C 307.794 108.436 239.216 139.745 154.748 139.745 C 70.279 139.745 1.702 108.436 1.702 69.872 Z " fill="rgb(253,112,107)"/><path d=" M 37.475 46.394 C 37.475 23.117 90.322 4.218 155.414 4.218 C 220.507 4.218 273.354 23.117 273.354 46.394 C 273.354 69.672 220.507 88.571 155.414 88.571 C 90.322 88.571 37.475 69.672 37.475 46.394 Z " fill="rgb(255,56,49)"/><path d=" M 69.077 43.141 C 69.077 34.362 109.078 27.235 158.348 27.235 C 207.618 27.235 247.619 34.362 247.619 43.141 C 247.619 51.92 207.618 59.047 158.348 59.047 C 109.078 59.047 69.077 51.92 69.077 43.141 Z " fill="rgb(181,73,61)"/></g></g></svg>