<?xml version="1.0" standalone="no"?><!-- Generator: Gravit.io --><svg xmlns="http://www.w3.org/2000/svg" xmlns:xlink="http://www.w3.org/1999/xlink" style="isolation:isolate" viewBox="0 0 1134.298 738.163"><defs><clipPath id="_clipPath_q54O1VgaU5Ffac6TwVYvWG5iAM1SsSBm"><rect width="1134.298" height="738.163"/></clipPath></defs><g clip-path="url(#_clipPath_q54O1VgaU5Ffac6TwVYvWG5iAM1SsSBm)"><path d=" M 382.946 483 L 356.447 537.819 L 342.447 566.98 L 317.447 614.242 L 302.447 643.403 L 257.01 724.165 L 239.3 730.887 Q 225.821 735.639 220.3 730.887 Q 217.412 728.402 215.3 721.52 L 215.3 711.781 L 218.3 700.72 L 239.3 686.642 L 257.447 636.364 L 267.447 617.258 L 279.447 594.13 L 291.447 572.752 L 302.447 551.594 L 311.447 530.435 Q 312.793 516.958 311.447 509.663 C 310.318 503.543 309.35 498.942 306.3 493.574 C 304.317 490.084 301.078 485.577 296.518 480 L 382.946 483 Z " fill="rgb(219,201,180)" vector-effect="non-scaling-stroke" stroke-width="1" stroke="rgb(0,0,0)" stroke-linejoin="miter" stroke-linecap="square" stroke-miterlimit="3"/><g class="leg-back-right"><g class="bottom"><path d=" M 915.721 513.433 Q 916.085 513.69 916.3 513.9 C 919.068 517.668 905.07 546.728 903.3 553.599 Q 902.552 556.503 894.3 568.9 L 884.3 591.955 L 875.3 605.955 L 869.3 616.859 L 859.176 629.256 L 848.3 644.9 Q 825.587 673.003 817.3 665.9 Q 810.3 659.9 822.3 629.256 L 848.3 589.035 L 861.3 558.996 L 864.3 537.955 L 862.874 537.165 L 915.721 513.433 Z " fill="rgb(219,201,180)" vector-effect="non-scaling-stroke" stroke-width="1" stroke="rgb(0,0,0)" stroke-linejoin="miter" stroke-linecap="square" stroke-miterlimit="3"/><path d=" M 862.232 535.313 L 865.695 537.375 L 864.612 545.189 L 911.818 528.225 L 913.2 524.455 L 914.621 519.698 L 914.866 518.834 L 915.328 516.344 L 915.359 515.141 L 913.449 513.105 L 912.839 512.6 L 862.232 535.313 Z " fill="rgb(219,201,180)"/></g><g class="top"><path d=" M 679.072 453.955 C 680.378 451.699 681.925 450.029 683.694 448.9 C 690.089 444.821 697.15 446.229 704.3 447.9 Q 711.436 449.568 722.3 457.9 L 741.3 469.4 L 770.3 490.475 L 802.3 506.256 L 835.3 521.9 L 862.874 537.165 L 915.845 513.48 C 909.351 507.364 897.163 501.171 879.3 494.9 L 864.3 486.9 L 852.3 480.9 L 828.3 463.9 Q 811.984 451.08 804.3 442.9 Q 794.458 432.423 780.3 409.9 Q 765.862 369.813 765.4 346.9 Q 765.343 344.088 765.538 340.02 L 764 342 L 679.072 453.955 Z " fill="rgb(219,201,180)" vector-effect="non-scaling-stroke" stroke-width="1" stroke="rgb(0,0,0)" stroke-linejoin="miter" stroke-linecap="square" stroke-miterlimit="3"/><path d=" M 859.011 534.465 L 864.836 537.684 L 863.811 545.086 L 912.642 528.202 L 914.018 524.54 L 915.616 519.231 L 916.107 516.601 L 916.181 514.905 L 915.935 514.241 L 914.296 512.746 L 911.365 510.473 L 908.375 508.438 L 859.011 534.465 Z " fill="rgb(219,201,180)"/></g></g><path d=" M 1048.82 136.877 C 1044.332 139.505 1039.2 142.264 1033.583 145.122 L 991.027 164.892 L 927.56 192.079 L 859.176 226.271 Q 824.294 237.379 809.203 249.942 Q 792.643 263.73 775.012 299.915 L 766.3 325.709 C 765.883 330.898 765.608 335.375 765.538 338.829 L 765 340.809 Q 751.043 387.964 735 408.709 Q 719.543 428.698 679.072 452.764 L 549.983 467.747 C 534.811 461.863 511.269 482.162 491.447 482.709 Q 485.475 482.874 474.447 482.709 L 459.447 482.709 L 438.447 482.709 L 414.683 482.709 L 383.447 482.709 L 382.946 482.809 L 296 479.809 L 295.3 479.709 L 282.157 479.709 L 282.157 479.709 L 280.868 481.137 L 192.442 433.746 C 192.751 426.739 192.746 418.364 192.447 408.709 L 183.231 385.709 L 170.447 365.709 C 166.506 358.142 158.351 349.175 154.299 342.709 C 150.187 336.149 146.631 329.661 143.007 323.261 L 264.914 213 C 267.47 215.085 270.029 217.035 272.655 218.709 C 292.447 232.709 288.023 223.569 309.477 231.531 C 314.115 238.988 327.78 244.709 339.447 246.709 L 364.71 249.942 L 456.765 249.942 L 548.82 249.942 L 564.601 249.942 L 640.135 243.792 Q 684.135 251.514 719.779 236.792 Q 739.354 228.706 775.012 213.12 L 859.176 176.298 L 927.56 152.627 L 980.162 131.586 Q 1006.246 122.05 1023.436 113.017 L 1048.82 136.877 Z " fill="rgb(219,201,180)" vector-effect="non-scaling-stroke" stroke-width="1" stroke="rgb(0,0,0)" stroke-linejoin="miter" stroke-linecap="square" stroke-miterlimit="3"/><line x1="558.475" y1="467.249" x2="672.969" y2="455.257" vector-effect="non-scaling-stroke" stroke-width="8" stroke="rgb(219,201,180)" stroke-linejoin="miter" stroke-linecap="square" stroke-miterlimit="3"/><path d=" M 264.914 214.191 C 260.753 210.766 256.599 206.963 252.17 203.327 L 134.265 309.861 C 137.406 314.672 140.226 319.535 143.007 324.451 L 264.914 214.191 Z " fill="rgb(255,213,0)" vector-effect="non-scaling-stroke" stroke-width="1" stroke="rgb(0,0,0)" stroke-linejoin="miter" stroke-linecap="square" stroke-miterlimit="3"/><path d=" M 621.112 375.226 L 628.907 391.223 L 646.529 393.694 L 633.724 406.05 L 636.82 423.574 L 621.112 415.214 L 605.403 423.574 L 608.499 406.05 L 595.694 393.694 L 613.317 391.223 L 621.112 375.226 Z " fill-rule="evenodd" fill="rgb(255,213,0)"/><g style="isolation:isolate" class="head"><path d=" M 134.265 309.861 C 133.484 308.677 132.69 307.496 131.872 306.317 C 124.596 295.835 116.311 293.896 105.065 284.034 C 98.124 277.947 92.116 277.272 81.609 276.997 Q 76.106 285.018 67.577 287 C 64.368 287.746 60.837 286.515 56.984 287 Q 48.872 279.441 44.698 278.005 Q 39.91 276.357 33.313 269.544 L 25.422 259.023 L 41.203 232.722 L 38.573 201.16 L 51.724 177.489 L 51.724 143.297 L 56.984 103.845 L 67.505 59.133 C 74.516 62.444 94.683 105.599 125.368 127.516 L 135.888 103.845 L 143.779 67.023 L 154.299 45.982 L 172.71 85.434 L 183.231 109.105 L 196.381 132.777 L 206.902 153.818 L 217.423 177.489 Q 238.4 192.57 249.447 201.16 C 250.365 201.874 251.269 202.599 252.17 203.327 L 134.265 309.861 Z " fill="rgb(219,201,180)" vector-effect="non-scaling-stroke" stroke-width="1" stroke="rgb(0,0,0)" stroke-linejoin="miter" stroke-linecap="square" stroke-miterlimit="3"/><path d=" M 25.621 258.97 Q 31.122 250.145 33.973 245.372 C 36.671 246.034 38.962 248.732 41.828 251.609 C 42.17 253.772 42.68 256.791 41.828 259.463 Q 40.432 263.838 32.718 268.053 L 25.621 258.97 Z " fill="rgb(255,135,135)" vector-effect="non-scaling-stroke" stroke-width="0.1" stroke="rgb(0,0,0)" stroke-linejoin="miter" stroke-linecap="square" stroke-miterlimit="3"/><path d=" M 63.632 147.9 L 64.132 136.4 L 67.132 119.4 L 71.132 100.9 L 75.014 84.063 L 85.632 99.4 L 97.132 119.4 L 103.632 133.4 L 105.632 143.9 L 109.632 156.4 L 94.632 162.4 L 80.632 161.4 L 64.132 166.4 L 63.632 147.9 Z " fill="rgb(176,136,136)" vector-effect="non-scaling-stroke" stroke-width="1" stroke="rgb(219,170,170)" stroke-linejoin="miter" stroke-linecap="square" stroke-miterlimit="3"/><g style="isolation:isolate" class="cat-eye"><path d=" M 51.724 198.53 L 56.984 193.27 L 64.875 190.64 L 72.765 190.64 L 80.655 193.27 L 85.916 195.9 L 88.546 198.53 L 85.916 201.16 L 80.655 206.421 L 72.765 211.681 L 62.244 214.311 L 58.3 213.9 L 54.3 211.9 L 52.097 210.612 L 51.724 206.421 L 51.724 198.53 Z " fill="rgb(151,177,249)" vector-effect="non-scaling-stroke" stroke-width="2.63" stroke="rgb(0,0,0)" stroke-opacity="0.22" stroke-linejoin="miter" stroke-linecap="square" stroke-miterlimit="3"/><path d=" M 63.948 191.9 L 59.087 193.27 L 52.3 198.816 L 52.3 201.589 L 52.3 204.362 L 52.3 207.135 L 52.3 209.908 L 59.087 212.681 L 61.981 212.9 L 66.3 211.9 L 67.3 207.135 L 68.3 204.362 L 68.3 201.589 L 67.3 198.816 L 66.3 191.9 L 63.948 191.9 Z " fill="rgb(40,40,40)" vector-effect="non-scaling-stroke" stroke-width="2.63" stroke="rgb(0,0,0)" stroke-linejoin="miter" stroke-linecap="square" stroke-miterlimit="3"/></g><g style="isolation:isolate" class="whiskers"><path d=" M 54.36 239.001 L 76.206 234.385 L 101.437 231.924" fill="none" vector-effect="non-scaling-stroke" stroke-width="1" stroke="rgb(255,255,255)" stroke-linejoin="miter" stroke-linecap="square" stroke-miterlimit="3"/><path d=" M 54.526 245.134 L 76.786 243.382 L 102.123 244.205" fill="none" vector-effect="non-scaling-stroke" stroke-width="1" stroke="rgb(255,255,255)" stroke-linejoin="miter" stroke-linecap="square" stroke-miterlimit="3"/><path d=" M 54.7 250.066 L 76.983 251.485 L 101.949 255.887" fill="none" vector-effect="non-scaling-stroke" stroke-width="1" stroke="rgb(255,255,255)" stroke-linejoin="miter" stroke-linecap="square" stroke-miterlimit="3"/></g><g style="isolation:isolate" class="right-ear-shadow"><path d=" M 214.439 175.442 L 203.632 183.9 L 182.132 185.9 L 158.632 184.4 L 140.632 172.9 L 131.632 161.4 L 123.632 144.9 L 126.28 130.775 L 214.439 175.442 Z " fill="rgb(191,175,171)"/><path d=" M 197.629 137.675 L 204.632 151.9 L 215.132 174.9 L 214.439 175.442 L 126.28 130.775 L 126.632 128.9 L 137.632 106.9 L 138.71 101.508 L 197.629 137.675 Z " fill="rgb(183,166,162)"/><path d=" M 173.291 87.365 L 188.632 119.4 L 197.629 137.675 L 138.71 101.508 L 142.632 81.9 L 145.632 63.9 L 146.479 62.441 L 173.291 87.365 Z " fill="rgb(183,166,162)"/><path d=" M 173.291 87.365 L 154.632 48.4 L 146.479 62.441 L 173.291 87.365 Z " fill="rgb(179,162,158)"/><line x1="126.173" y1="128.03" x2="173.291" y2="153.9" vector-effect="non-scaling-stroke" stroke-width="1" stroke="rgb(0,0,0)" stroke-linejoin="miter" stroke-linecap="square" stroke-miterlimit="3"/></g></g><g class="leg-back-left"><g class="bottom"><path d=" M 719.62 636.688 Q 719.694 637.31 719.694 637.9 Q 719.694 643.15 651.694 690.9 L 610.694 725.9 L 584.694 732.9 Q 564.165 719.068 566.694 706.9 Q 569.383 693.964 595.694 690.9 L 642.547 644.9 L 661.693 633.119 L 719.62 636.688 Z " fill="rgb(219,201,180)" vector-effect="non-scaling-stroke" stroke-width="1" stroke="rgb(0,0,0)" stroke-linejoin="miter" stroke-linecap="square" stroke-miterlimit="3"/><path d=" M 658.631 623.658 L 708.115 618.058 L 710.25 621.115 L 713.25 624.519 L 714.865 627.346 L 716.827 631.212 L 718.385 635.712 L 718.393 637.921 L 717.598 639.058 L 715.917 640.969 L 711.585 645.059 L 706.945 648.7 L 655.409 638.421 L 662.03 634.448 L 663.056 634.008 L 662.846 630.5 L 658.631 623.658 Z " fill="rgb(219,201,180)"/></g><g class="top"><path d=" M 680.459 452.556 Q 675.757 459.417 674.3 469.4 L 674.3 490.475 L 674.3 521.9 L 674.3 553.599 L 683.694 579.9 L 695.341 599.539 L 710.382 618.9 C 716.102 625.959 719.187 631.891 719.62 636.688 L 661.693 633.119 L 662.694 632.503 L 619.067 568.9 L 610.694 545.9 Q 609.091 537.16 607.694 532.558 C 599.642 506.025 570.531 493.746 557.3 474.9 C 555.181 471.881 552.617 468.759 549.88 467.719 L 680.459 452.556 Z " fill="rgb(219,201,180)" vector-effect="non-scaling-stroke" stroke-width="1" stroke="rgb(0,0,0)" stroke-linejoin="miter" stroke-linecap="square" stroke-miterlimit="3"/><line x1="552.029" y1="468.7" x2="529.3" y2="442.102" vector-effect="non-scaling-stroke" stroke-width="1" stroke="rgb(0,0,0)" stroke-linejoin="miter" stroke-linecap="square" stroke-miterlimit="3"/><path d=" M 658.631 623.658 L 708.115 618.058 L 710.25 621.115 L 713.25 624.519 L 714.865 627.346 L 716.827 631.212 L 718.385 635.712 L 718.393 637.921 L 717.598 639.058 L 715.917 640.969 L 711.585 645.059 L 706.945 648.7 L 655.409 638.421 L 662.03 634.448 L 663.056 634.008 L 662.846 630.5 L 658.631 623.658 Z " fill="rgb(219,201,180)"/><path d=" M 537.569 450.963 L 693.418 442.46 L 680.914 450.145 L 679.645 452.832 L 678.965 454.047 L 677.381 455.134 L 674.054 462.478 L 672.743 469.819 L 554.885 469.757 L 552.694 468.827 L 537.569 450.963 Z " fill="rgb(219,201,180)"/></g></g><g class="leg-front-left"><path d=" M 280.868 482.327 L 279.447 483.9 L 246.447 506.256 L 217.423 515.9 L 179.447 532.558 L 136.447 557.9 L 103.632 579.9 L 74.619 599.539 L 71.132 603.9 L 63.886 604.679 L 28.447 618.9 L 27.447 613.9 L 25.621 619.352 Q -5.926 612.664 3.447 601.9 Q 17.039 586.291 67.505 550.9 L 85.632 537.818 L 109.632 521.9 L 131.447 506.256 L 157.447 490.475 Q 167.838 484.303 172.71 479.955 C 178.845 474.48 183.69 467.471 187.447 461.9 Q 191.621 455.712 192.442 434.937 L 280.868 482.327 Z  M 282.157 480.9 L 302.447 457.9" fill-rule="evenodd" fill="rgb(219,201,180)" vector-effect="non-scaling-stroke" stroke-width="1" stroke="rgb(0,0,0)" stroke-linejoin="miter" stroke-linecap="square" stroke-miterlimit="3"/><path d=" M 193.939 428.627 L 283.104 476.499 L 280.987 479.069 L 279.119 482.387 L 278.506 482.982 L 274.691 485.536 L 193.384 441.522 L 193.939 428.627 Z " fill="rgb(219,201,180)"/></g><g class="tail-top"><path d=" M 1048.82 136.877 Q 1063.958 128.27 1072.217 121.066 Q 1098.951 97.747 1119.56 34.271 L 1124.82 23.751 Q 1129.188 19.131 1130.08 15.86 Q 1131.365 11.147 1127.45 2.709 Q 1112.886 4.698 1109.039 10.6 C 1089.238 40.98 1073.873 78.731 1040.655 102.655 C 1035.94 106.051 1030.229 109.503 1023.436 113.017 L 1048.82 136.877 Z " fill="rgb(219,201,180)" vector-effect="non-scaling-stroke" stroke-width="1" stroke="rgb(0,0,0)" stroke-linejoin="miter" stroke-linecap="square" stroke-miterlimit="3"/><path d=" M 1020.859 115.846 L 1024.443 113.971 L 1029.095 111.468 L 1052.351 133.339 L 1047.741 136.009 L 1043.203 138.578 L 1020.859 115.846 Z " fill="rgb(219,201,180)"/></g></g></svg>