<?xml version="1.0" standalone="no"?><!-- Generator: Gravit.io --><svg xmlns="http://www.w3.org/2000/svg" xmlns:xlink="http://www.w3.org/1999/xlink" style="isolation:isolate" viewBox="0 0 306.092 139.745" width="306.092" height="139.745"><defs><clipPath id="_clipPath_88abTXdLNrQc65UMqCMGwwgPppAGvOa8"><rect width="306.092" height="139.745"/></clipPath></defs><g clip-path="url(#_clipPath_88abTXdLNrQc65UMqCMGwwgPppAGvOa8)"><g id="bowl"><path d=" M 0 69.872 C 0 31.309 68.578 0 153.046 0 C 237.514 0 306.092 31.309 306.092 69.872 C 306.092 108.436 237.514 139.745 153.046 139.745 C 68.578 139.745 0 108.436 0 69.872 Z " fill="rgb(42,189,104)"/><path d=" M 37.773 46.394 C 37.773 23.117 90.62 4.218 155.712 4.218 C 220.805 4.218 273.652 23.117 273.652 46.394 C 273.652 69.672 220.805 88.571 155.712 88.571 C 90.62 88.571 37.773 69.672 37.773 46.394 Z " fill="rgb(46,204,113)"/><path d=" M 69.375 43.141 C 69.375 34.362 109.376 27.235 158.646 27.235 C 207.916 27.235 247.917 34.362 247.917 43.141 C 247.917 51.92 207.916 59.047 158.646 59.047 C 109.376 59.047 69.375 51.92 69.375 43.141 Z " fill="rgb(37,164,90)"/></g></g></svg>